PathFileType	4	(X/Y/Z)	c:\Git\powerlifing_model_clean\simulations\HC835B\Session1\HC835B_OGR_0002\marker_experimental.trc
DataRate	CameraRate	NumFrames	NumMarkers	Units	OrigDataRate	OrigDataStartFrame	OrigNumFrames
240.000000	240.000000	4	38	mm	240.000000	163	218
Frame#	Time	RPSI			LPSI			RASI			LASI			RTH1			RTH2			RTH3			RTH4			RSK1			RSK2			RSK3			RSK4			RCAL1			RCAL2			RCAL3			RST			RPT			RTN			RFMB			RSMB			RVMB			RFMH			RSMH			RVMH			RPM			LTH1			LTH2			LTH3			LTH4			LSK1			LSK2			LSK3			LSK4			LCAL1			LCAL2			LCAL3			LFMH			LVMH			
		X1	Y1	Z1	X2	Y2	Z2	X3	Y3	Z3	X4	Y4	Z4	X5	Y5	Z5	X6	Y6	Z6	X7	Y7	Z7	X8	Y8	Z8	X9	Y9	Z9	X10	Y10	Z10	X11	Y11	Z11	X12	Y12	Z12	X13	Y13	Z13	X14	Y14	Z14	X15	Y15	Z15	X16	Y16	Z16	X17	Y17	Z17	X18	Y18	Z18	X19	Y19	Z19	X20	Y20	Z20	X21	Y21	Z21	X22	Y22	Z22	X23	Y23	Z23	X24	Y24	Z24	X25	Y25	Z25	X26	Y26	Z26	X27	Y27	Z27	X28	Y28	Z28	X29	Y29	Z29	X30	Y30	Z30	X31	Y31	Z31	X32	Y32	Z32	X33	Y33	Z33	X34	Y34	Z34	X35	Y35	Z35	X36	Y36	Z36	X37	Y37	Z37	X38	Y38	Z38	

164	0.6791666666666667	527.1638793945314	1153.866577148438	-1895.364501953125	415.9059143066407	1154.619384765625	-1900.099365234375	587.2775268554689	1081.5712890625	-2090.6533203125	349.4906616210938	1074.182983398438	-2099.034423828125	670.4724731445314	831.0625610351565	-2099.006591796875	663.3076782226564	843.8574218750002	-2158.33642578125	661.6118774414064	765.4468994140626	-2151.756103515625	642.9924926757814	776.274597167969	-2206.23388671875	614.2138061523439	439.0820312500001	-1978.019409179688	614.1474609375001	389.195770263672	-2014.455200195313	608.1968994140626	385.7815246582032	-1953.787353515625	596.3123168945314	339.3519897460938	-1989.368408203125	546.3454589843751	318.3153686523438	-1816.823852539063	508.394500732422	291.7571105957032	-1800.837768554688	570.7250366210939	286.0574645996094	-1790.336059570313	499.3176574707032	254.3731384277344	-1861.79833984375	599.0995483398439	250.2867431640626	-1836.94921875	517.6872558593751	227.5612487792969	-1911.036865234375	517.6867065429689	192.7910919189454	-1920.799926757813	568.9618530273439	196.2490997314454	-1937.945922851563	604.2377929687501	199.191390991211	-1848.471557617188	508.8680725097657	132.1316680908203	-1936.085693359375	564.5244750976564	128.1671142578125	-1950.939697265625	620.8826293945314	134.4994812011719	-1892.915283203125	554.1660156250001	86.17983245849611	-1987.121459960938	288.0198364257813	810.2812500000002	-1954.277099609375	295.1493530273438	787.088317871094	-2009.955322265625	297.2275695800782	724.8944702148439	-1957.720092773438	319.2953491210938	704.7314453125001	-2011.472045898438	340.1806945800782	345.9860839843751	-1719.430053710938	337.0294189453126	306.2909240722657	-1755.216674804688	345.4115905761719	290.6662902832032	-1708.768310546875	356.1183471679688	251.2173004150391	-1748.355834960938	404.9631652832032	189.8992462158203	-1585.804809570313	380.1063842773438	153.4501647949219	-1567.557983398438	438.3092346191407	158.7820281982422	-1571.82958984375	465.2369384765626	57.66283035278322	-1759.812744140625	352.1455993652344	35.79306030273438	-1713.452514648438	
165	0.6833333333333333	527.6092529296876	1157.498779296875	-1909.1318359375	416.197967529297	1157.413330078125	-1914.350952148438	588.0086669921876	1086.136474609375	-2105.102294921875	350.1840820312501	1077.372314453125	-2113.357421875	670.9273681640626	834.8560791015627	-2113.541748046875	663.6608886718751	847.7130126953127	-2172.82666015625	661.8634643554689	769.2940063476565	-2166.30810546875	642.9501953125001	780.2077636718752	-2220.744384765625	613.1923828125001	434.5695190429689	-1997.862548828125	613.6383666992189	386.1033630371095	-2035.775634765625	607.4841308593751	380.6576538085938	-1975.372192382813	595.7704467773439	335.3559265136719	-2012.641479492188	545.0338134765626	307.6830444335938	-1841.050659179688	507.008758544922	280.5511169433594	-1826.3125	569.6808471679689	274.6643066406251	-1815.536010742188	498.1422119140626	245.8147888183594	-1888.804565429688	597.8595581054689	240.3930358886719	-1863.582153320313	516.8648071289064	220.7863311767579	-1938.841430664063	516.7080078125001	186.475814819336	-1950.13623046875	568.1453247070314	190.4931335449219	-1966.776245117188	602.9110107421876	189.7247467041016	-1877.082885742188	507.8470153808595	126.5812530517578	-1967.835083007813	563.5748901367189	123.0679244995117	-1982.4599609375	619.6291503906251	126.8967361450196	-1924.059936523438	553.3305664062501	82.57873535156251	-2020.452270507813	288.5500488281251	814.2253417968752	-1965.382690429688	296.3805541992188	790.141052246094	-2020.896728515625	297.9343872070313	728.5913085937501	-1967.124389648438	321.1723327636719	706.9947509765626	-2019.01953125	339.6365661621094	350.5818481445313	-1725.057250976563	335.6761474609376	310.9919738769532	-1760.84423828125	344.3163452148438	295.1596069335938	-1714.508666992188	354.3437805175782	255.8385925292969	-1754.062133789063	403.8494567871095	195.9017639160157	-1593.02783203125	379.3468017578126	160.2232971191407	-1573.376831054688	437.4964294433595	165.740219116211	-1577.93408203125	464.7351684570314	58.55043411254884	-1761.300537109375	351.8897399902344	36.8838233947754	-1714.727172851563	
166	0.6875	528.0291137695314	1160.916381835938	-1923.022705078125	416.4111328125001	1160.089965820313	-1928.714721679688	588.6390991210939	1090.315795898438	-2118.912841796875	350.9862670898438	1080.564331054688	-2127.7109375	671.3358154296876	838.5269165039065	-2127.991455078125	663.9394531250001	851.3901367187502	-2187.2783203125	662.0831909179689	772.940368652344	-2180.75830078125	642.8402709960939	783.8554687500002	-2235.081298828125	612.4373779296876	430.1049194335939	-2017.455200195313	613.2079467773439	383.0748596191407	-2057.0693359375	606.5973510742189	375.4212951660157	-1996.958251953125	595.3227539062501	331.5195007324219	-2035.905395507813	543.9724121093751	297.2829589843751	-1865.451782226563	505.5448303222657	269.4801940917969	-1852.216430664063	569.8231811523439	264.5941467285157	-1840.641845703125	497.022918701172	237.1664276123047	-1916.138793945313	596.5842895507814	230.6354980468751	-1890.475341796875	515.4042358398439	215.1328582763672	-1968.924926757813	515.9919433593751	180.3540802001953	-1979.584350585938	567.3670654296876	185.3196716308594	-1996.462524414063	601.8432617187501	180.4931640625	-1905.744018554688	506.9769287109376	121.2790985107422	-1999.804077148438	562.8220825195314	118.1916885375977	-2014.147094726563	618.4583740234376	119.5365753173828	-1955.3388671875	552.7081298828126	79.34498596191408	-2053.83154296875	289.0434265136719	817.950134277344	-1976.569702148438	297.6718139648438	793.0806274414065	-2031.646240234375	298.4414062500001	732.3735961914064	-1976.955078125	322.4292602539063	710.1616210937501	-2028.328735351563	339.0023498535157	355.1766662597657	-1730.94482421875	334.2604370117188	315.6230163574219	-1766.491333007813	343.0945434570313	299.7151489257813	-1720.417358398438	352.5755615234376	260.3632202148438	-1759.997436523438	402.624237060547	202.2954559326172	-1600.506958007813	378.4740905761719	167.1594543457032	-1579.482177734375	437.339080810547	173.5207214355469	-1584.233764648438	464.117889404297	59.52095413208009	-1763.351196289063	351.6077270507813	38.2097396850586	-1716.151611328125	
167	0.6916666666666667	528.3881225585939	1164.3759765625	-1936.81396484375	416.6828613281251	1162.838623046875	-1942.992919921875	589.2884521484376	1094.527709960938	-2132.59375	351.8195190429688	1083.7958984375	-2142.177001953125	671.6679077148439	842.0276489257815	-2142.33544921875	664.1077880859376	854.851013183594	-2201.6083984375	662.2896728515626	776.4241943359377	-2195.067138671875	642.8014526367189	787.3179321289065	-2249.3193359375	611.6456298828126	425.5877685546876	-2036.999267578125	612.8273315429689	379.9291076660157	-2078.326904296875	605.8153076171876	370.1976318359376	-2018.598754882813	594.9033203125001	327.5759887695313	-2059.242919921875	542.3842773437501	286.3775329589844	-1890.559204101563	504.0700073242189	258.4638671875001	-1878.594848632813	566.5186767578126	251.3783874511719	-1867.39208984375	496.0167541503907	228.8608551025391	-1943.758422851563	594.9665527343751	220.8218078613282	-1917.1435546875	514.6911010742189	208.9218139648438	-1997.398315429688	515.2915649414064	174.4817962646485	-2009.331420898438	566.8428955078126	179.9495849609375	-2025.575439453125	600.1626586914064	171.363265991211	-1934.81103515625	506.3408813476564	116.2838745117188	-2031.92529296875	562.2637329101564	113.6389770507813	-2045.973388671875	617.3892211914064	112.4371566772461	-1986.768920898438	552.2781982421876	76.37683868408205	-2087.200927734375	289.4714965820313	821.6613769531252	-1987.887573242188	298.8812866210938	795.9437255859377	-2042.474731445313	299.0786437988282	736.0706176757814	-1986.733642578125	323.7514343261719	713.0429077148439	-2037.48828125	338.3069763183594	359.7862548828126	-1736.955932617188	332.8380126953126	320.2461547851563	-1772.505859375	341.9099121093751	304.3087158203126	-1726.517822265625	350.8135681152344	264.9146118164063	-1766.048217773438	401.2645568847657	208.8734741210938	-1608.3544921875	377.4467468261719	174.3016510009766	-1585.955322265625	435.9425659179689	180.7716674804688	-1591.06201171875	463.5914001464845	60.44261932373048	-1765.388671875	351.2937927246094	39.84184265136719	-1717.605346679688	
